<svg id="Group_224" data-name="Group 224" xmlns="http://www.w3.org/2000/svg" viewBox="10068.205 -2439.557 480.79 557.292">
  <defs>
    <style>
      .cls-1 {
        fill: #fff;
      }

      .cls-2 {
        fill: #6bcbd7;
      }

      .cls-3 {
        fill: #50d1ff;
      }

      .cls-4 {
        fill: #27d1ff;
      }
    </style>
  </defs>
  <path id="Union_13" data-name="Union 13" class="cls-1" d="M589.64,222.9l-2.761-1.584-.045-.046a93.781,93.781,0,0,1-46.8-81.014V93.551a93.781,93.781,0,0,1,46.8-81.014l.091-.046a93.822,93.822,0,0,1,93.551,0h.046a93.782,93.782,0,0,1,46.8,81.015c0,7.965-.182,23.353-.182,23.987a21.982,21.982,0,0,1-21.95,21.725h-.227A21.982,21.982,0,0,1,683.237,117c0-.136.181-15.8.181-23.535a49.815,49.815,0,0,0-24.8-43h-.045a49.643,49.643,0,0,0-49.649,0l-.091.046a49.741,49.741,0,0,0-24.8,42.951v46.708a49.871,49.871,0,0,0,24.8,43l2.715,1.584A22,22,0,0,1,589.64,222.9ZM830.1,115.14v-7.015a21.951,21.951,0,1,1,43.9,0v7.015a21.951,21.951,0,1,1-43.9,0Z" transform="translate(9674.944 -2280.006)"/>
  <g id="Group_20" data-name="Group 20" transform="translate(10308.532 -2122.503)">
    <g id="Group_19" data-name="Group 19">
      <path id="Path_25" data-name="Path 25" class="cls-2" d="M1399.9,700.5" transform="translate(-1399.9 -700.5)"/>
    </g>
  </g>
  <path id="Union_12" data-name="Union 12" class="cls-3" d="M196.29,554.349,75.99,484.922A151.99,151.99,0,0,1,0,353.307V202.231A152.283,152.283,0,0,1,76.125,70.39L96.991,58.351a21.969,21.969,0,1,1,21.95,38.063L98.077,108.453a108.565,108.565,0,0,0-54.13,93.778V353.307a108.316,108.316,0,0,0,53.995,93.551l120.3,69.428a21.969,21.969,0,1,1-21.95,38.063Zm29.418-69.292L123.014,425.722a93.835,93.835,0,0,1-46.753-81.015V306.328a21.951,21.951,0,1,1,43.9,0v38.379a49.87,49.87,0,0,0,24.8,43l102.693,59.334a49.774,49.774,0,0,0,49.6,0L411.95,380.916a49.8,49.8,0,0,0,24.848-43,21.951,21.951,0,1,1,43.9,0,93.8,93.8,0,0,1-46.8,81.059L319.214,485.1a93.885,93.885,0,0,1-93.506-.046Zm96.583-115.049A21.966,21.966,0,0,1,330.3,340l5.431-3.123a49.758,49.758,0,0,0,24.8-43V212.414a49.814,49.814,0,0,0-24.8-43l-6.563-3.8a21.969,21.969,0,1,1,21.95-38.063l6.563,3.8a93.779,93.779,0,0,1,46.8,81.015v81.467A93.829,93.829,0,0,1,357.73,374.85l-5.431,3.123a21.9,21.9,0,0,1-30.007-7.965ZM76.306,244.458V212.415A93.782,93.782,0,0,1,123.1,131.4l70.514-40.734a93.83,93.83,0,0,1,93.552,0l7.649,4.39a21.97,21.97,0,1,1-21.951,38.063l-7.649-4.39a49.866,49.866,0,0,0-49.65,0l-70.514,40.734a49.759,49.759,0,0,0-24.8,43V244.5a21.974,21.974,0,0,1-43.947-.046Zm360.537-39.6v-3.3A107.314,107.314,0,0,0,383.3,108.815L295.09,58.261c-39.058-18.375-69.97-19.009-106.268-2.128L175.47,63.646a21.956,21.956,0,0,1-21.5-38.29l14.076-7.921c.453-.271.95-.5,1.4-.723,48.88-22.992,93.687-22.269,145.282,2.217.5.226,1,.5,1.493.77l89.024,51.008.046.044A150.991,150.991,0,0,1,480.79,201.506v3.3a21.973,21.973,0,1,1-43.947.046Z" transform="translate(10068.205 -2439.557)"/>
  <g id="Group_26" data-name="Group 26" transform="translate(10305.109 -2075.138)">
    <path id="Path_31" data-name="Path 31" class="cls-4" d="M1425.994,851.519a91.277,91.277,0,0,1-15.252-1.267,21.972,21.972,0,0,1,7.151-43.358,50.487,50.487,0,0,0,20.819-1,21.968,21.968,0,0,1,11.315,42.454A92.762,92.762,0,0,1,1425.994,851.519Z" transform="translate(-1392.338 -805.152)"/>
  </g>
  <g id="Group_29" data-name="Group 29" transform="translate(10288.437 -2197.769)">
    <path id="Path_33" data-name="Path 33" class="cls-4" d="M1377.5,607.068a21.943,21.943,0,0,1-21.951-21.951L1355.5,556.2a21.981,21.981,0,0,1,21.951-22h.046a21.942,21.942,0,0,1,21.951,21.951l.045,28.921a22.02,22.02,0,0,1-22,22Z" transform="translate(-1355.5 -534.2)"/>
  </g>
</svg>
